<svg xmlns="http://www.w3.org/2000/svg" width="111.383" height="29.781" viewBox="0 0 111.383 29.781">
  <path id="Path_8" data-name="Path 8" d="M135.31,56.366v-11.4h9.979c2.057,0,5.367.282,5.367,2.992a2.938,2.938,0,0,1-2.5,2.613c1.676.508,2.5,1.444,2.5,2.725,0,2.795-3.143,3.061-5.367,3.07H135.31Zm3.665-4.8,1.048-1.749a1.441,1.441,0,0,1,1.188-.635h4.079c.729,0,1.321-.337,1.321-.908s-.588-.915-1.321-.915h-6.315Zm0,0v4.8l1.048-1.751a1.443,1.443,0,0,1,1.188-.635h4.024a1.212,1.212,0,1,0,0-2.405Zm20.532-3.847-4.943,8.659h-4.3l6.9-11.412h4.714l6.891,11.4h-4.3L163.3,54.333h-6.385l1.06-1.749a1.466,1.466,0,0,1,.518-.463,1.451,1.451,0,0,1,.67-.172h2.765Zm29.96,0-4.942,8.659h-4.31l6.895-11.412h4.714l6.889,11.4H194.42l-1.158-2.033h-6.385l1.048-1.749a1.459,1.459,0,0,1,.515-.464,1.437,1.437,0,0,1,.669-.171h2.77l-2.414-4.234ZM175.43,53.975c.838,0,1.507-.409,1.507-1.239V44.962h3.647V53.08c0,2.46-1.611,3.286-3.721,3.286h-6.1a1.456,1.456,0,0,1-.669-.172,1.471,1.471,0,0,1-.517-.463l-1.06-1.757Zm29.946,0c.838,0,1.511-.409,1.511-1.239V44.962h3.658V53.08c0,2.46-1.607,3.286-3.719,3.286h-6.1a1.433,1.433,0,0,1-.67-.17,1.458,1.458,0,0,1-.516-.465l-1.06-1.757ZM135.29,60.153h9.034v2.771h-5.9v2.733h5.338v2.623h-5.338v3.3h-3.13Zm11.162,0h3.143V71.565h-3.143Zm5.856,0h2.921l4.647,6.032V60.153h3.1V71.565h-2.75L155.4,65.306v6.258h-3.094Zm12.455,9.724,1.743-2.1a5.779,5.779,0,0,0,3.662,1.37c.838,0,1.29-.294,1.29-.783V68.33c0-.472-.371-.735-1.9-1.092-2.405-.555-4.259-1.239-4.259-3.587v-.032c0-2.117,1.661-3.652,4.372-3.652a7.053,7.053,0,0,1,4.645,1.516l-1.566,2.234a5.614,5.614,0,0,0-3.162-1.126c-.758,0-1.129.326-1.129.735v.032c0,.523.388.749,1.952,1.109,2.6.569,4.209,1.418,4.209,3.555v.032c0,2.329-1.823,3.716-4.563,3.716a7.834,7.834,0,0,1-5.292-1.891Zm12.009-9.724h9.082v2.691H179.88v1.728h5.42v2.494h-5.42v1.812h6.065v2.708h-9.172Zm11.415,0h5.347a4.9,4.9,0,0,1,3.677,1.239,3.558,3.558,0,0,1,1,2.657v.034a3.607,3.607,0,0,1-2.324,3.5l2.695,3.978h-3.62L192.7,68.118h-1.37v3.455h-3.139Zm5.185,5.479c1.067,0,1.676-.523,1.676-1.355v-.032c0-.9-.646-1.353-1.693-1.353h-2.049v2.74Zm5.833-5.479h3.5l2.56,7.23,2.563-7.23h3.436l-4.582,11.494h-2.9Zm-75.391,1.98c0,4.059-4.488,4.446-7.662,4.465h-2.862V62.944h5.677v-2.79h-5.677V56.366h6.285V53.418h-9.608V66.6H106.3V50.031h9.861c2.933,0,7.662.423,7.662,4.344,0,1.939-1.644,3.366-3.561,3.855,2.376.741,3.561,1.931,3.561,3.9Zm-9.2-18.705a14.626,14.626,0,0,0-8.186,2.509A14.854,14.854,0,0,0,101,52.619,15,15,0,0,0,104.2,68.847a14.651,14.651,0,0,0,22.671-2.256,15.01,15.01,0,0,0-1.831-18.8,14.657,14.657,0,0,0-10.416-4.363Z" transform="translate(-99.882 -43.427)" fill="#fff"/>
</svg>
