<svg width="19" height="19" viewBox="0 0 19 19" fill="none" xmlns="http://www.w3.org/2000/svg">
<g id="alarm-14 1">
<path id="Vector" d="M17.4154 4.52849L13.7777 1.47661L12.7604 2.68786L16.3981 5.73974L17.4154 4.52849ZM6.23703 2.68391L5.21974 1.47266L1.58203 4.52453L2.59932 5.73578L6.23703 2.68391ZM9.89453 6.33349H8.70703V11.0835L12.4635 13.3437L13.0612 12.366L9.89453 10.4897V6.33349ZM9.49474 3.16682C5.5562 3.16682 2.3737 6.35724 2.3737 10.2918C2.3737 14.2264 5.5562 17.4168 9.49474 17.4168C13.4333 17.4168 16.6237 14.2264 16.6237 10.2918C16.6237 6.35724 13.4333 3.16682 9.49474 3.16682ZM9.4987 15.8335C6.43891 15.8335 3.95703 13.3516 3.95703 10.2918C3.95703 7.23203 6.43891 4.75016 9.4987 4.75016C12.5585 4.75016 15.0404 7.23203 15.0404 10.2918C15.0404 13.3516 12.5624 15.8335 9.4987 15.8335Z" fill="#FD5454"/>
</g>
</svg>
