<svg width="32" height="39" viewBox="0 0 32 39" fill="none" xmlns="http://www.w3.org/2000/svg">
<rect width="28" height="28" rx="4" fill="white"/>
<path d="M23.067 14.3335H6.30096L11.2407 20.3538C11.4465 20.6046 11.4465 21.0112 11.2407 21.2619C11.035 21.5127 10.7011 21.5127 10.4953 21.2619L4.68014 14.1747C4.66967 14.1638 4.65611 14.1601 4.64626 14.1481C4.62993 14.1282 4.62993 14.1 4.61607 14.0782C4.57079 14.0103 4.53906 13.9363 4.51997 13.856C4.51319 13.8248 4.50826 13.7978 4.50549 13.7659C4.48393 13.5737 4.52489 13.3732 4.64595 13.2253C4.65642 13.2125 4.67028 13.2084 4.68137 13.1968L10.495 6.11142C10.7008 5.86065 11.0344 5.86065 11.2404 6.11142C11.4462 6.36219 11.4462 6.76875 11.2404 7.01952L6.30096 13.0399H23.067C23.3602 13.0399 23.5977 13.3297 23.5977 13.6867C23.5977 14.0437 23.3602 14.3335 23.067 14.3335Z" fill="#306BFF"/>
</svg>
