<svg width="25" height="26" viewBox="0 0 25 26" fill="none" xmlns="http://www.w3.org/2000/svg">
<g id="direction-13 1">
<path id="Vector" d="M15.6241 6.94043L9.62003 9.30758L7.25293 15.3116L13.257 12.9446L15.6241 6.94043ZM11.035 11.5296C10.8122 11.3067 10.8122 10.9454 11.035 10.7226C11.2579 10.4998 11.6191 10.4997 11.842 10.7226C12.0648 10.9454 12.0648 11.3067 11.842 11.5296C11.6192 11.7524 11.2579 11.7524 11.035 11.5296Z" fill="#36A98A"/>
<path id="Vector_2" d="M11.4398 3.35596C7.14862 3.35596 3.66992 6.83466 3.66992 11.1259C3.66992 15.4171 7.14862 18.8958 11.4398 18.8958C15.731 18.8958 19.2097 15.4171 19.2097 11.1259C19.2097 6.83466 15.731 3.35596 11.4398 3.35596ZM11.4398 17.9298C7.68207 17.9298 4.63582 14.8836 4.63582 11.1258C4.63582 7.36806 7.68207 4.32181 11.4398 4.32181C15.1975 4.32181 18.2438 7.36806 18.2438 11.1258C18.2438 14.8836 15.1975 17.9298 11.4398 17.9298Z" fill="#36A98A"/>
</g>
</svg>
