<svg width="28" height="27" viewBox="0 0 28 27" fill="none" xmlns="http://www.w3.org/2000/svg">
<g id="fenlei-4 1">
<rect width="28" height="27" rx="4" fill="white"/>
<path id="Vector" d="M22.9601 4.09082H5.46818C4.25836 4.09082 3.27539 5.03869 3.27539 6.20529V21.2861C3.27539 22.4527 4.25836 23.4006 5.46818 23.4006H22.9727C24.1825 23.4006 25.1655 22.4527 25.1655 21.2861V6.20529C25.1655 5.03869 24.1699 4.09082 22.9601 4.09082ZM24.0061 21.2983C24.0061 21.8573 23.5398 22.3069 22.9601 22.3069H5.46818C4.88848 22.3069 4.42219 21.8573 4.42219 21.2983V6.20529C4.42219 5.6463 4.88848 5.19667 5.46818 5.19667H22.9727C23.5524 5.19667 24.0187 5.6463 24.0187 6.20529V21.2983H24.0061Z" fill="#306BFF"/>
<path id="Vector_2" d="M20.2105 7.59245H9.10848C8.88448 6.76895 8.10048 6.14795 7.17648 6.14795C6.07048 6.14795 5.16048 7.02545 5.16048 8.09195C5.16048 9.15845 6.07048 10.0359 7.17648 10.0359C8.01648 10.0359 8.74448 9.53645 9.03848 8.82095H20.2245C20.5745 8.82095 20.8685 8.55095 20.8685 8.19995C20.8545 7.86245 20.5605 7.59245 20.2105 7.59245ZM7.16248 8.80745C6.75648 8.80745 6.42048 8.48345 6.42048 8.09195C6.42048 7.70045 6.75648 7.37645 7.16248 7.37645C7.56848 7.37645 7.90448 7.70045 7.90448 8.09195C7.90448 8.48345 7.56848 8.80745 7.16248 8.80745ZM20.2105 14.5314H9.10848C8.87048 13.7079 8.10048 13.0869 7.16248 13.0869C6.05648 13.0869 5.14648 13.9644 5.14648 15.0309C5.14648 16.0975 6.05648 16.9749 7.16248 16.9749C8.00248 16.9749 8.73048 16.4755 9.02448 15.76H20.2105C20.5605 15.76 20.8545 15.49 20.8545 15.139C20.8545 14.8014 20.5605 14.5314 20.2105 14.5314ZM7.16248 15.7464C6.75648 15.7464 6.42048 15.4225 6.42048 15.0309C6.42048 14.6395 6.75648 14.3155 7.16248 14.3155C7.56848 14.3155 7.90448 14.6395 7.90448 15.0309C7.90448 15.4225 7.56848 15.7464 7.16248 15.7464ZM20.2105 11.0484H13.3505C13.0005 11.0484 12.7065 11.3184 12.7065 11.6694C12.7065 12.0069 12.9865 12.2904 13.3505 12.2904H20.2105C20.5605 12.2904 20.8545 12.0204 20.8545 11.6694C20.8545 11.3184 20.5605 11.0484 20.2105 11.0484ZM20.2105 17.9874H13.3505C13.0005 17.9874 12.7065 18.2575 12.7065 18.6084C12.7065 18.9594 12.9865 19.2295 13.3505 19.2295H20.2105C20.5605 19.2295 20.8545 18.9594 20.8545 18.6084C20.8545 18.2575 20.5605 17.9874 20.2105 17.9874Z" fill="#306BFF"/>
</g>
</svg>
