<svg width="17" height="17" viewBox="0 0 17 17" fill="none" xmlns="http://www.w3.org/2000/svg">
<g id="map-85 1">
<path id="Vector" d="M8.51085 17L3.90985 12.0221C2.69449 10.7072 2 8.92265 2 7.0442C2 5.16575 2.69449 3.38122 3.90985 2.0663C5.12521 0.751381 6.77462 0 8.51085 0C10.2471 0 11.8965 0.751381 13.1119 2.0663C15.6294 4.79006 15.6294 9.29834 13.1119 12.0221L8.51085 17ZM8.51085 0.939227C6.99165 0.939227 5.60267 1.59669 4.51753 2.72376C3.43239 3.85083 2.86811 5.40055 2.86811 7.0442C2.86811 8.68785 3.47579 10.1906 4.51753 11.3646L8.51085 15.6851L12.5042 11.3646C14.7179 8.96961 14.7179 5.11878 12.5042 2.72376C11.419 1.59669 10.0301 0.939227 8.51085 0.939227Z" fill="#306BFF"/>
<path id="Vector_2" d="M8.7096 9.82887C7.23329 9.82887 6.02539 8.62098 6.02539 7.14466C6.02539 5.66834 7.23329 4.46045 8.7096 4.46045C10.1859 4.46045 11.3938 5.66834 11.3938 7.14466C11.3938 8.62098 10.1859 9.82887 8.7096 9.82887ZM8.7096 5.35519C7.72539 5.35519 6.92013 6.16045 6.92013 7.14466C6.92013 8.12887 7.72539 8.93413 8.7096 8.93413C9.69381 8.93413 10.4991 8.12887 10.4991 7.14466C10.4991 6.16045 9.69381 5.35519 8.7096 5.35519Z" fill="#306BFF"/>
</g>
</svg>
