<svg class="svg-icon" style="width: 1em; height: 1em;vertical-align: middle;fill: currentColor;overflow: hidden;" viewBox="0 0 1024 1024" version="1.1" xmlns="http://www.w3.org/2000/svg"><path d="M206.116734 596.023523c46.398166-0.727906 83.429277-38.940285 82.701371-85.336645-0.717069-46.40539-38.927642-83.438308-85.325808-82.710401-46.407197 0.7261-83.438308 38.927642-82.710402 85.334838 0.727906 46.409003 38.927642 83.429277 85.334839 82.712208zM820.51854 596.023523c46.396359-0.727906 83.427471-38.940285 82.699565-85.336645-0.717069-46.40539-38.927642-83.438308-85.325808-82.710401-46.407197 0.7261-83.438308 38.927642-82.710402 85.334838 0.729713 46.409003 38.927642 83.429277 85.336645 82.712208zM513.313122 596.023523c46.407197-0.727906 83.438308-38.940285 82.710401-85.336645-0.729713-46.40539-38.927642-83.438308-85.336645-82.710401-46.396359 0.7261-83.427471 38.927642-82.710401 85.334838 0.729713 46.409003 38.929448 83.429277 85.336645 82.712208z" fill="#505050" /></svg>