<svg width="12" height="10" viewBox="0 0 12 10" fill="none" xmlns="http://www.w3.org/2000/svg">
<path id="Vector" d="M11.2941 0.922193H0.70588C0.595667 0.922193 0.5 0.831133 0.5 0.711096C0.5 0.59106 0.595667 0.5 0.70588 0.5H11.2941C11.4043 0.5 11.5 0.591067 11.5 0.711096C11.5 0.831133 11.4043 0.922193 11.2941 0.922193ZM7.76472 5.21119H0.70588C0.595673 5.21119 0.5 5.12012 0.5 5.00009C0.5 4.88006 0.595667 4.789 0.70588 4.789H7.76472C7.87491 4.789 7.97059 4.88005 7.97059 5.00009C7.97059 5.12014 7.87491 5.21119 7.76472 5.21119ZM9.88236 9.5H0.70588C0.595662 9.5 0.5 9.40893 0.5 9.28892C0.5 9.16888 0.595668 9.07782 0.70588 9.07782H9.88236C9.99256 9.07782 10.0882 9.16887 10.0882 9.28892C10.0882 9.40895 9.99257 9.5 9.88236 9.5Z" fill="#306BFF" stroke="#696969"/>
</svg>
