<svg width="20" height="18" viewBox="0 0 20 18" fill="none" xmlns="http://www.w3.org/2000/svg">
<g id="production-3 1">
<path id="Vector" d="M11.839 8.53751C11.8087 8.51755 11.7805 8.49258 11.7583 8.46493C10.2261 7.08683 8.98421 5.97229 8.86125 5.86433C7.59917 4.7371 8.5568 3.28959 10.0386 2.78107C10.3854 2.66359 10.7382 2.63095 11.1011 2.58511C11.1888 2.57605 11.3732 2.57468 11.5567 2.57378C11.9378 2.5688 11.9075 2.10612 11.5547 2.05804C11.3571 2.03264 11.1364 2.0036 11.0265 1.99632C9.04265 1.83623 6.92778 2.47668 4.92782 4.27759C4.78569 4.40868 4.6365 4.53751 4.49233 4.66905C4.13551 5.97867 3.17784 6.35016 2.71818 6.45449C2.5045 6.28893 2.17888 6.29618 1.97424 6.47946C1.92991 6.52027 1.89359 6.56472 1.86939 6.61463L1.44002 6.99655C1.22833 7.18618 1.22833 7.49237 1.44002 7.68061L3.52869 9.55269C3.73633 9.74048 4.08005 9.74048 4.29075 9.55269L4.69396 9.18889C4.75547 9.16622 4.81294 9.13174 4.86332 9.08639C5.04376 8.92537 5.07298 8.68129 4.95202 8.49168C4.95302 8.49035 4.95302 8.48806 4.95404 8.48578C4.96515 8.45538 4.97622 8.42273 4.99034 8.38735C5.00846 8.34288 5.02965 8.29889 5.05081 8.25397C5.06391 8.23539 5.074 8.21361 5.08611 8.19139C5.11939 8.13968 5.1597 8.09206 5.19801 8.0476C5.28266 7.9623 5.38349 7.88702 5.51654 7.84029C6.3633 7.54045 7.19798 8.0349 7.6062 8.33747C7.6395 8.36377 8.92978 9.52639 10.4842 10.9295L11.1303 11.5119C13.4035 13.5641 15.9397 15.8521 15.9397 15.8521L18.0485 14.1175C18.0485 14.1175 15.8006 12.0998 13.5305 10.0549L11.839 8.53751Z" fill="#306BFF"/>
<path id="Vector_2" d="M18.4805 3.27303L16.5954 2.06777C16.3353 1.9013 15.9745 1.95614 15.791 2.19344C15.6801 2.32907 15.668 2.49644 15.7184 2.64522C15.5954 2.6638 15.4865 2.7246 15.3958 2.80851L15.3817 2.799L11.9241 7.18822C12.0249 7.51209 12.0008 7.86274 11.8395 8.18165L12.3777 8.53002L12.1519 8.81718C12.0189 8.69878 11.8878 8.58173 11.7588 8.46516C11.781 8.49282 11.8092 8.51777 11.8395 8.53774L13.5309 10.0551C13.287 9.83962 13.043 9.62006 12.8011 9.40234L13.1116 9.00722L13.6256 9.34064C13.912 9.09475 14.2728 8.95234 14.6519 8.93239L18.0651 4.60395L18.1155 4.5436L18.0994 4.535C18.1619 4.42884 18.1861 4.31497 18.1659 4.20793C18.3393 4.20383 18.5067 4.13578 18.6155 3.99745C18.801 3.76476 18.7405 3.43996 18.4805 3.27303ZM13.3435 7.18097L13.0269 6.98003L15.5934 3.72711L15.9059 3.92897L13.3435 7.18097ZM14.5188 7.93532L14.2063 7.73302L16.7708 4.48057L17.0873 4.68106L14.5188 7.93532Z" fill="#306BFF"/>
<path id="Vector_3" d="M8.35377 13.626L8.29427 13.5879L7.40015 14.3518L6.62598 15.7326L7.42835 16.2479L8.63703 15.1447L9.14809 14.134L9.09164 14.0996L11.1309 11.5121L10.4847 10.9297L8.35377 13.626Z" fill="#306BFF"/>
</g>
</svg>
