<svg width="14" height="15" viewBox="0 0 14 15" fill="none" xmlns="http://www.w3.org/2000/svg">
<g id="speed-5 1" clip-path="url(#clip0_1571_186)">
<path id="Vector" d="M7 7.8125C7.64167 7.8125 8.16667 8.375 8.16667 9.0625C8.16667 9.75 7.64167 10.3125 7 10.3125C6.35833 10.3125 5.83333 9.75 5.83333 9.0625C5.83333 8.9375 5.8625 8.84375 5.8625 8.75L3.9375 6.6875C3.70417 6.4375 3.70417 6.0625 3.9375 5.8125C4.17083 5.5625 4.52083 5.5625 4.75417 5.8125L6.67917 7.875C6.79583 7.84375 6.88333 7.8125 7 7.8125ZM7.46667 1.59375C10.9375 1.84375 13.7667 4.90625 13.9708 8.625C13.9708 8.6875 14 8.71875 14 8.78125V8.84375C14.0292 9.78125 13.8833 10.7187 13.6208 11.5937C13.3875 12.3437 12.7167 12.8437 11.9583 12.8437H2.04167C1.3125 12.8437 0.641667 12.3437 0.379167 11.5937C0.145833 10.7812 0 9.9375 0 9.0625C0 7 0.816667 5 2.21667 3.59375C3.52917 2.28125 5.19167 1.5625 6.97083 1.5625H7.02917C7.175 1.5625 7.32083 1.5625 7.46667 1.59375ZM12.5125 11.1562C12.6875 10.5937 12.8042 10 12.8333 9.375H11.9583C11.6375 9.375 11.375 9.09375 11.375 8.75C11.375 8.40625 11.6375 8.125 11.9583 8.125H12.775C12.3667 5.34375 10.2083 3.125 7.58333 2.84375V3.75C7.58333 4.09375 7.32083 4.375 7 4.375C6.67917 4.375 6.41667 4.09375 6.41667 3.75V2.84375C5.13333 2.96875 3.96667 3.5625 3.00417 4.5C1.95417 5.5625 1.34167 6.9375 1.19583 8.4375H2.04167C2.3625 8.4375 2.625 8.71875 2.625 9.0625C2.625 9.40625 2.3625 9.6875 2.04167 9.6875H1.19583C1.25417 10.1875 1.34167 10.6875 1.4875 11.1562C1.575 11.4062 1.80833 11.5625 2.04167 11.5625H11.9583C12.1917 11.5625 12.425 11.4062 12.5125 11.1562Z" fill="#FFBF00"/>
</g>
<defs>
<clipPath id="clip0_1571_186">
<rect width="14" height="15" fill="white"/>
</clipPath>
</defs>
</svg>
