<svg width="34" height="34" viewBox="0 0 34 34" fill="none" xmlns="http://www.w3.org/2000/svg">
<g filter="url(#filter0_d_1693_236)">
<rect x="2" y="2" width="30" height="30" rx="15" fill="#F3EFEF" shape-rendering="crispEdges"/>
<rect x="4" y="4.5" width="26" height="25" rx="12.5" fill="#F3EFEF"/>
<path d="M17 27C11.477 27 7 22.523 7 17C7 11.477 11.477 7 17 7C22.523 7 27 11.477 27 17C27 22.523 22.523 27 17 27ZM17 25C21.4185 25 25 21.4185 25 17C25 12.5815 21.4185 9 17 9C12.5815 9 9 12.5815 9 17C9 21.4185 12.5815 25 17 25ZM13.433 14.708C14.0484 14.092 14.8141 13.6475 15.6542 13.4185C16.4943 13.1895 17.3796 13.184 18.2225 13.4025L18.184 13.259C18.1211 13.0048 18.1605 12.7361 18.2936 12.5106C18.4268 12.2851 18.643 12.1208 18.896 12.053C19.1489 11.9853 19.4183 12.0194 19.6464 12.1481C19.8744 12.2769 20.0428 12.4899 20.1155 12.7415L20.763 15.1565C20.8204 15.3706 20.8051 15.5976 20.7195 15.8021C20.6339 16.0065 20.4827 16.1767 20.2899 16.2859C20.097 16.3951 19.8733 16.4371 19.6539 16.4054C19.4346 16.3736 19.232 16.2699 19.078 16.1105C18.5144 15.553 17.7529 15.2412 16.9601 15.2434C16.1673 15.2455 15.4076 15.5614 14.847 16.122C14.7548 16.2175 14.6444 16.2937 14.5224 16.3461C14.4004 16.3985 14.2692 16.4261 14.1364 16.4273C14.0036 16.4284 13.8719 16.4031 13.749 16.3528C13.6261 16.3025 13.5145 16.2283 13.4206 16.1344C13.3267 16.0405 13.2525 15.9289 13.2022 15.806C13.1519 15.6831 13.1266 15.5514 13.1277 15.4186C13.1289 15.2858 13.1565 15.1546 13.2089 15.0326C13.2613 14.9106 13.3375 14.8002 13.433 14.708ZM20.573 19.29C19.9575 19.906 19.1917 20.3505 18.3515 20.5794C17.5113 20.8083 16.6259 20.8137 15.783 20.595L15.8215 20.739C15.8844 20.9932 15.845 21.2619 15.7119 21.4874C15.5787 21.7129 15.3625 21.8772 15.1095 21.945C14.8566 22.0127 14.5872 21.9786 14.3591 21.8499C14.1311 21.7211 13.9627 21.5081 13.89 21.2565L13.243 18.8415C13.1856 18.6274 13.2009 18.4004 13.2865 18.1959C13.3721 17.9915 13.5233 17.8213 13.7161 17.7121C13.909 17.6029 14.1327 17.5609 14.3521 17.5926C14.5714 17.6244 14.774 17.7281 14.928 17.8875C15.4917 18.4448 16.253 18.7564 17.0457 18.7541C17.8384 18.7519 18.598 18.436 19.1585 17.8755C19.3461 17.688 19.6005 17.5827 19.8657 17.5827C20.1309 17.5828 20.3852 17.6882 20.5728 17.8757C20.7603 18.0633 20.8656 18.3177 20.8655 18.5829C20.8655 18.8482 20.7601 19.1025 20.5725 19.29H20.573Z" fill="#36A98A"/>
</g>
<defs>
<filter id="filter0_d_1693_236" x="0" y="0" width="34" height="34" filterUnits="userSpaceOnUse" color-interpolation-filters="sRGB">
<feFlood flood-opacity="0" result="BackgroundImageFix"/>
<feColorMatrix in="SourceAlpha" type="matrix" values="0 0 0 0 0 0 0 0 0 0 0 0 0 0 0 0 0 0 127 0" result="hardAlpha"/>
<feOffset/>
<feGaussianBlur stdDeviation="1"/>
<feComposite in2="hardAlpha" operator="out"/>
<feColorMatrix type="matrix" values="0 0 0 0 0.403922 0 0 0 0 0.403922 0 0 0 0 0.403922 0 0 0 0.25 0"/>
<feBlend mode="normal" in2="BackgroundImageFix" result="effect1_dropShadow_1693_236"/>
<feBlend mode="normal" in="SourceGraphic" in2="effect1_dropShadow_1693_236" result="shape"/>
</filter>
</defs>
</svg>
