<svg width="348" height="5" viewBox="0 0 348 5" fill="none" xmlns="http://www.w3.org/2000/svg">
<rect x="319.553" width="28.4469" height="4.69934" rx="1.99031" fill="#69BC4B"/>
<path d="M287.313 1.99031C287.313 0.891091 288.205 0 289.304 0H313.77C314.869 0 315.76 0.891091 315.76 1.99031V3.00969C315.76 4.10891 314.869 5 313.77 5H289.304C288.205 5 287.313 4.10891 287.313 3.00969V1.99031Z" fill="#69BC4B"/>
<rect x="255.073" width="28.4469" height="5" rx="1.99031" fill="#69BC4B"/>
<path d="M201.973 1.99031C201.973 0.891091 202.864 0 203.963 0H249.29C250.389 0 251.281 0.891091 251.281 1.99031V3.00969C251.281 4.10891 250.389 5 249.29 5H203.963C202.864 5 201.973 4.10891 201.973 3.00969V1.99031Z" fill="#6C7D00"/>
<rect x="115.684" width="81.5477" height="5" rx="1.99031" fill="#DBD535"/>
<rect width="109.995" height="5" rx="1.99031" fill="#FD5454"/>
</svg>
