<svg class="svg-icon" style="width: 1em;height: 1em;vertical-align: middle;fill: currentColor;overflow: hidden;" viewBox="0 0 1024 1024" version="1.1" xmlns="http://www.w3.org/2000/svg"><path d="M682.666667 362.666667H341.333333c-12.8 0-21.333333-8.533333-21.333333-21.333334V128c0-12.8 8.533333-21.333333 21.333333-21.333333h341.333334c12.8 0 21.333333 8.533333 21.333333 21.333333v213.333333c0 12.8-8.533333 21.333333-21.333333 21.333334z m-320-42.666667h298.666666V149.333333H362.666667v170.666667zM682.666667 874.666667H341.333333c-12.8 0-21.333333-8.533333-21.333333-21.333334V640c0-12.8 8.533333-21.333333 21.333333-21.333333h341.333334c12.8 0 21.333333 8.533333 21.333333 21.333333v213.333333c0 12.8-8.533333 21.333333-21.333333 21.333334z m-320-42.666667h298.666666v-170.666667H362.666667v170.666667zM1002.666667 874.666667H746.666667v-42.666667h234.666666v-170.666667H746.666667v-42.666666h256c12.8 0 21.333333 8.533333 21.333333 21.333333v213.333333c0 12.8-8.533333 21.333333-21.333333 21.333334zM277.333333 874.666667H21.333333c-12.8 0-21.333333-8.533333-21.333333-21.333334V640c0-12.8 8.533333-21.333333 21.333333-21.333333h256v42.666666H42.666667v170.666667h234.666666v42.666667z"  /><path d="M896 640h-42.666667v-106.666667H170.666667v106.666667H128v-128c0-12.8 8.533333-21.333333 21.333333-21.333333h725.333334c12.8 0 21.333333 8.533333 21.333333 21.333333v128z"  /><path d="M490.666667 341.333333h42.666666v298.666667h-42.666666zM490.666667 213.333333h42.666666v42.666667h-42.666666zM576 213.333333h42.666667v42.666667h-42.666667zM405.333333 213.333333h42.666667v42.666667h-42.666667zM405.333333 725.333333h213.333334v42.666667H405.333333zM810.666667 725.333333h128v42.666667h-128zM85.333333 725.333333h128v42.666667H85.333333z"  /></svg>