<svg class="svg-icon" style="width: 1em; height: 1em;vertical-align: middle;fill: currentColor;overflow: hidden;" viewBox="0 0 1024 1024" version="1.1" xmlns="http://www.w3.org/2000/svg"><path d="M962.430224 849.726861c0 61.993936-44.919049 112.781646-106.955964 112.781646L169.997254 962.508507c-62.035892 0-107.340727-50.78771-107.340727-112.781646L62.656527 174.939311c0-62.013379 45.305859-112.11752 107.340727-112.11752l685.477007 0c62.036915 0 107.105367 45.091988 107.105367 107.10639L962.430224 849.726861 962.430224 849.726861zM913.598053 175.0969c0.148379-30.868031-32.005948-65.044412-63.294558-63.293535-17.173125 0-659.249669 0-675.136497 0-30.317493 0-63.251579 31.076786-63.293535 63.293535 0 0 0.105401 654.546553 0.105401 670.768003-2.489704 30.762631 32.19526 67.703985 63.188134 67.664076l675.136497 0c30.53034 0 63.294558-32.766264 63.294558-63.295582L913.598053 175.0969 913.598053 175.0969zM774.77838 773.860986l0 60.122309c0 11.824303-11.83249 21.420869-26.409486 21.420869-14.579043 0-26.40744-9.596566-26.40744-21.420869l0-67.285452c-34.7085-8.810666-66.951855-42.778292-66.951855-82.662675 0-39.887452 30.708396-73.496921 66.951855-82.664721L721.961454 191.348026c0-11.824303 11.828396-21.421892 26.40744-21.421892 14.576997 0 26.409486 9.596566 26.409486 21.421892L774.77838 601.369424c35.266202 10.70276 66.947761 42.778292 66.947761 82.664721 0 39.885406-33.216519 78.456886-66.947761 85.732593L774.77838 773.860986zM748.368894 642.727367c-22.821775 0-41.307801 18.48398-41.307801 41.306778s18.486026 41.308825 41.307801 41.308825 41.307801-18.486026 41.307801-41.308825S771.190669 642.727367 748.368894 642.727367L748.368894 642.727367zM304.057529 776.930905l0 60.122309c0 11.824303-11.83249 21.420869-26.409486 21.420869-14.579043 0-26.40744-9.596566-26.40744-21.420869l0-67.285452c-34.7085-8.810666-66.951855-42.778292-66.951855-82.662675 0-39.887452 30.708396-73.496921 66.951855-82.664721L251.240603 194.417945c0-11.824303 11.828396-21.421892 26.40744-21.421892 14.576997 0 26.409486 9.596566 26.409486 21.421892L304.057529 604.439342c35.266202 10.70276 66.947761 42.778292 66.947761 82.664721 0 39.885406-33.216519 78.456886-66.947761 85.732593L304.057529 776.930905zM277.648043 645.797285c-22.821775 0-41.307801 18.48398-41.307801 41.306778s18.486026 41.308825 41.307801 41.308825 41.307801-18.486026 41.307801-41.308825S300.469817 645.797285 277.648043 645.797285L277.648043 645.797285zM486.597959 254.53923l0-60.122309c0-11.824303 11.83249-21.420869 26.409486-21.420869 14.579043 0 26.40744 9.596566 26.40744 21.420869l0 67.285452c34.7085 8.810666 66.951855 42.778292 66.951855 82.662675 0 39.887452-30.708396 73.496921-66.951855 82.664721l0 410.021397c0 11.824303-11.828396 21.421892-26.40744 21.421892-14.576997 0-26.409486-9.597589-26.409486-21.421892L486.597959 427.030793c-35.266202-10.70276-66.947761-42.778292-66.947761-82.664721 0-39.885406 33.216519-78.456886 66.947761-85.732593L486.597959 254.53923zM513.006422 385.67285c22.821775 0 41.307801-18.48398 41.307801-41.306778s-18.486026-41.308825-41.307801-41.308825-41.307801 18.486026-41.307801 41.308825S490.184647 385.67285 513.006422 385.67285L513.006422 385.67285z"  /></svg>