<svg width="15" height="13" viewBox="0 0 15 13" fill="none" xmlns="http://www.w3.org/2000/svg">
<g id="planning-statistics 2" clip-path="url(#clip0_750_2817)">
<path id="Vector" d="M14.0982 10.7874C14.0982 11.5744 13.4403 12.2192 12.5315 12.2192H2.49034C1.58161 12.2192 0.917969 11.5744 0.917969 10.7874V2.22073C0.917969 1.43345 1.58163 0.797363 2.49034 0.797363H12.5315C13.4403 0.797363 14.1004 1.36982 14.1004 2.15711L14.0982 10.7874ZM13.3829 2.22273C13.3851 1.83085 12.9141 1.39697 12.4558 1.4192C12.2042 1.4192 2.79879 1.4192 2.56607 1.4192C2.12197 1.4192 1.63953 1.81373 1.63892 2.22273C1.63892 2.22273 1.64046 10.5324 1.64046 10.7383C1.60399 11.1289 2.11207 11.5979 2.56607 11.5974H12.4558C12.903 11.5974 13.3829 11.1814 13.3829 10.7938V2.22273ZM11.3494 9.82423V10.5875C11.3494 10.7376 11.1761 10.8594 10.9626 10.8594C10.749 10.8594 10.5758 10.7376 10.5758 10.5875V9.73329C10.0673 9.62144 9.59501 9.19021 9.59501 8.68386C9.59501 8.17748 10.0448 7.75079 10.5758 7.63441V2.42904C10.5758 2.27893 10.749 2.15709 10.9626 2.15709C11.1761 2.15709 11.3494 2.27892 11.3494 2.42904V7.63439C11.866 7.77027 12.3301 8.17748 12.3301 8.68385C12.3301 9.19021 11.8436 9.67988 11.3494 9.77225V9.82423ZM10.9626 8.15945C10.6283 8.15945 10.3575 8.39411 10.3575 8.68385C10.3575 8.97359 10.6283 9.20828 10.9626 9.20828C11.2969 9.20828 11.5677 8.97359 11.5677 8.68385C11.5677 8.39411 11.2969 8.15945 10.9626 8.15945ZM4.45412 9.8632V10.6265C4.45412 10.7766 4.28079 10.8984 4.06726 10.8984C3.8537 10.8984 3.68043 10.7766 3.68043 10.6265V9.77226C3.17201 9.66041 2.69969 9.22918 2.69969 8.72284C2.69969 8.21645 3.14952 7.78977 3.68043 7.67338V2.46802C3.68043 2.3179 3.8537 2.19606 4.06726 2.19606C4.28079 2.19606 4.45412 2.31789 4.45412 2.46802V7.67337C4.97071 7.80924 5.4348 8.21645 5.4348 8.72282C5.4348 9.22918 4.94823 9.71886 4.45412 9.81122V9.8632ZM4.06726 8.19842C3.73296 8.19842 3.46216 8.43308 3.46216 8.72282C3.46216 9.01256 3.73296 9.24725 4.06726 9.24725C4.40156 9.24725 4.67235 9.01256 4.67235 8.72282C4.67235 8.43308 4.40156 8.19842 4.06726 8.19842ZM7.12805 3.23128V2.468C7.12805 2.31789 7.30138 2.19606 7.51491 2.19606C7.72847 2.19606 7.90173 2.31789 7.90173 2.468V3.32221C8.41016 3.43407 8.88247 3.8653 8.88247 4.37164C8.88247 4.87803 8.43264 5.30471 7.90173 5.4211V10.6264C7.90173 10.7766 7.72847 10.8984 7.51491 10.8984C7.30138 10.8984 7.12805 10.7766 7.12805 10.6264V5.42111C6.61145 5.28524 6.14737 4.87803 6.14737 4.37166C6.14737 3.8653 6.63394 3.37562 7.12805 3.28325V3.23128ZM7.51489 4.89606C7.84919 4.89606 8.11999 4.6614 8.11999 4.37166C8.11999 4.08191 7.84919 3.84723 7.51489 3.84723C7.18059 3.84723 6.9098 4.08191 6.9098 4.37166C6.9098 4.6614 7.18059 4.89606 7.51489 4.89606Z" fill="#FFBF00"/>
</g>
<defs>
<clipPath id="clip0_750_2817">
<rect width="15" height="13" fill="white"/>
</clipPath>
</defs>
</svg>
