<svg width="13" height="12" viewBox="0 0 13 12" fill="none" xmlns="http://www.w3.org/2000/svg">
<g id="planning-ability 4">
<path id="Vector" d="M9.13164 12C8.56433 12 8.00976 11.8454 7.53806 11.5559C7.06636 11.2663 6.69872 10.8547 6.48162 10.3731C6.26452 9.89155 6.20772 9.36166 6.31839 8.85044C6.42907 8.33922 6.70226 7.86963 7.1034 7.50106C7.50455 7.13249 8.01564 6.88149 8.57205 6.77981C9.12846 6.67812 9.70519 6.73031 10.2293 6.92978C10.7534 7.12924 11.2014 7.46703 11.5166 7.90042C11.8318 8.33382 12 8.84335 12 9.36458C11.9991 10.0633 11.6967 10.7332 11.1589 11.2272C10.6212 11.7213 9.89211 11.9992 9.13164 12ZM9.13164 7.64583C8.76166 7.64583 8.39998 7.74664 8.09235 7.93549C7.78472 8.12435 7.54495 8.39279 7.40337 8.70685C7.26178 9.02091 7.22473 9.36649 7.29691 9.69989C7.36909 10.0333 7.54726 10.3396 7.80888 10.5799C8.07049 10.8203 8.40382 10.984 8.76669 11.0503C9.12956 11.1166 9.50569 11.0826 9.84752 10.9525C10.1893 10.8224 10.4815 10.6021 10.687 10.3195C10.8926 10.0368 11.0023 9.70452 11.0023 9.36458C11.0018 8.9089 10.8045 8.47203 10.4538 8.14981C10.1031 7.82759 9.6276 7.64635 9.13164 7.64583ZM8.63279 8.40972H9.63049V9.09722H10.1848V10.0139H8.63279V8.40972ZM5.95843 11.5417H1.33025C0.977573 11.5413 0.639452 11.4124 0.390068 11.1833C0.140684 10.9541 0.000403421 10.6435 0 10.3194V2.22222C0.000396101 1.89818 0.140675 1.58751 0.39006 1.35838C0.639445 1.12925 0.97757 1.00036 1.33025 1H8.81293C9.16562 1.00037 9.50374 1.12926 9.75312 1.35839C10.0025 1.58752 10.1428 1.89818 10.1432 2.22222V6.09259H9.1455V2.22222C9.14539 2.14121 9.11032 2.06355 9.04798 2.00627C8.98563 1.94898 8.9011 1.91676 8.81293 1.91667H1.33025C1.24208 1.91676 1.15756 1.94898 1.09521 2.00627C1.03286 2.06355 0.997793 2.14121 0.997691 2.22222V10.3194C0.997793 10.4005 1.03286 10.4781 1.09521 10.5354C1.15756 10.5927 1.24208 10.6249 1.33025 10.625H5.95843V11.5417ZM2.97561 5.91435L1.52425 4.5473L2.23649 3.90953L2.94061 4.57271L4.29916 3.1642L5.04388 3.76994L2.97561 5.91435ZM8.14781 5.27778H5.2933V4.36111H8.14781V5.27778ZM2.97561 9.12269L1.52425 7.75563L2.23649 7.11786L2.94061 7.78104L4.29916 6.37253L5.04388 6.97827L2.97561 9.12269Z" fill="#36a98a"/>
</g>
</svg>
