<svg width="17" height="16" viewBox="0 0 17 16" fill="none" xmlns="http://www.w3.org/2000/svg">
<g id="timer-16 4">
<path id="Vector" d="M14.9045 6.36113C14.6472 5.69082 14.2753 5.06894 13.7972 4.51269C13.7938 4.50957 13.7905 4.50645 13.7889 4.50332C13.7324 4.44238 13.6577 4.31738 13.7839 4.16269C14.003 3.91426 14.0877 3.81426 14.091 3.80957C14.2288 3.64707 14.2006 3.41113 14.0279 3.28301C13.8553 3.15332 13.6046 3.17988 13.4685 3.34238C13.4668 3.34395 13.3821 3.44395 13.168 3.6877C13.1663 3.68926 13.1646 3.69238 13.1613 3.69395C12.8276 4.09082 12.8376 4.60957 13.1812 4.98926C13.6013 5.47988 13.93 6.02676 14.1558 6.61582C14.3898 7.22832 14.5094 7.87051 14.5094 8.52832C14.5094 10.0346 13.8868 11.4502 12.7546 12.5158C11.6224 13.5814 10.1183 14.1674 8.51787 14.1674C6.91748 14.1674 5.41338 13.5814 4.28115 12.5158C3.14893 11.4502 2.52637 10.0346 2.52637 8.52832C2.52637 7.02207 3.14893 5.60645 4.28115 4.54082C5.41338 3.4752 6.91748 2.88926 8.51787 2.88926C9.85762 2.88926 10.9234 3.20801 11.3667 3.74238C11.541 3.95332 11.5991 4.17676 11.5377 4.40801C11.4846 4.60957 11.6141 4.8127 11.8282 4.8627C12.0424 4.9127 12.2582 4.79082 12.3113 4.58926C12.4325 4.13613 12.3196 3.67051 11.9959 3.27988C11.7037 2.92832 11.2422 2.63926 10.6611 2.44395C10.0568 2.24082 9.33633 2.1377 8.51787 2.1377C7.60146 2.1377 6.71328 2.30645 5.8749 2.63926C5.06641 2.96113 4.34092 3.42207 3.7167 4.00801C3.09414 4.59395 2.60439 5.27832 2.2624 6.03926C1.90879 6.82676 1.72949 7.66426 1.72949 8.52676C1.72949 9.38926 1.90879 10.2252 2.2624 11.0143C2.60439 11.7752 3.09414 12.458 3.7167 13.0455C4.33926 13.6314 5.06641 14.0924 5.8749 14.4143C6.71162 14.7471 7.60146 14.9158 8.51787 14.9158C9.43428 14.9158 10.3225 14.7471 11.1608 14.4143C11.9693 14.0924 12.6948 13.6314 13.319 13.0455C13.9416 12.4596 14.4313 11.7752 14.7733 11.0143C15.127 10.2268 15.3062 9.38926 15.3062 8.52676C15.3046 7.78301 15.1701 7.05488 14.9045 6.36113Z" fill="#0000FF"/>
<path id="Vector_2" d="M8.50996 6.12949C8.28916 6.12949 8.11152 6.29668 8.11152 6.50449V8.66855C8.11152 8.76855 8.15303 8.86387 8.22773 8.93418L10.5271 11.0982C10.6051 11.1717 10.7063 11.2076 10.8093 11.2076C10.9105 11.2076 11.0135 11.1717 11.0915 11.0982C11.2476 10.9514 11.2476 10.7139 11.0915 10.5686L8.9084 8.5123V6.50449C8.9084 6.29668 8.73076 6.12949 8.50996 6.12949ZM6.90625 1.7998H10.0938C10.3146 1.7998 10.4922 1.63262 10.4922 1.4248C10.4922 1.21699 10.3146 1.0498 10.0938 1.0498H6.90625C6.68545 1.0498 6.50781 1.21699 6.50781 1.4248C6.50781 1.63262 6.68711 1.7998 6.90625 1.7998Z" fill="#0000FF"/>
</g>
</svg>
