<svg width="13" height="12" viewBox="0 0 13 12" fill="none" xmlns="http://www.w3.org/2000/svg">
<path d="M9.89261 12C9.27803 12 8.67724 11.8314 8.16624 11.5155C7.65523 11.1996 7.25695 10.7506 7.02176 10.2252C6.78656 9.69988 6.72503 9.12181 6.84493 8.56412C6.96483 8.00642 7.26078 7.49414 7.69535 7.09207C8.12993 6.68999 8.68361 6.41617 9.28639 6.30524C9.88916 6.19431 10.514 6.25124 11.0818 6.46885C11.6496 6.68645 12.1349 7.05494 12.4763 7.52774C12.8178 8.00053 13 8.55638 13 9.125C12.9991 9.88723 12.6714 10.618 12.0888 11.157C11.5063 11.696 10.7165 11.9991 9.89261 12ZM9.89261 7.25C9.49179 7.25 9.09998 7.35997 8.76671 7.56599C8.43345 7.77202 8.1737 8.06486 8.02031 8.40747C7.86693 8.75008 7.8268 9.12708 7.90499 9.4908C7.98319 9.85451 8.1762 10.1886 8.45962 10.4508C8.74304 10.713 9.10413 10.8916 9.49725 10.964C9.89036 11.0363 10.2978 10.9992 10.6681 10.8573C11.0384 10.7154 11.355 10.475 11.5776 10.1667C11.8003 9.85835 11.9192 9.49584 11.9192 9.125C11.9186 8.62789 11.7049 8.1513 11.3249 7.79979C10.945 7.44828 10.4299 7.25056 9.89261 7.25ZM9.35219 8.08333H10.433V8.83333H11.0335V9.83333H9.35219V8.08333ZM6.45497 11.5H1.44111C1.05904 11.4996 0.692739 11.359 0.422574 11.109C0.152408 10.8591 0.00043704 10.5202 0 10.1667V1.33333C0.00042911 0.979833 0.152398 0.640925 0.422565 0.390963C0.692732 0.141 1.05903 0.000397018 1.44111 0H9.54734C9.92942 0.000404355 10.2957 0.14101 10.5659 0.390971C10.836 0.640932 10.988 0.979835 10.9885 1.33333V5.55556H9.90762V1.33333C9.90751 1.24496 9.86952 1.16023 9.80198 1.09774C9.73444 1.03526 9.64286 1.0001 9.54734 1H1.44111C1.34559 1.0001 1.25402 1.03526 1.18648 1.09774C1.11894 1.16023 1.08094 1.24496 1.08083 1.33333V10.1667C1.08094 10.255 1.11894 10.3398 1.18648 10.4023C1.25402 10.4647 1.34559 10.4999 1.44111 10.5H6.45497V11.5ZM3.22358 5.36111L1.65127 3.86978L2.42286 3.17403L3.18566 3.8975L4.65742 2.36094L5.4642 3.02175L3.22358 5.36111ZM8.82679 4.66667H5.73441V3.66667H8.82679V4.66667ZM3.22358 8.86111L1.65127 7.36978L2.42286 6.67403L3.18566 7.3975L4.65742 5.86094L5.4642 6.52175L3.22358 8.86111Z" fill="#FFBF00"/>
</svg>
